<?xml version="1.0" standalone="no"?>
<!DOCTYPE svg PUBLIC "-//W3C//DTD SVG 20010904//EN"
 "http://www.w3.org/TR/2001/REC-SVG-20010904/DTD/svg10.dtd">
<svg version="1.0" xmlns="http://www.w3.org/2000/svg"
 width="327.000000pt" height="327.000000pt" viewBox="0 0 327.000000 327.000000"
 preserveAspectRatio="xMidYMid meet">
<metadata>
Created by potrace 1.11, written by Peter Selinger 2001-2013
</metadata>
<g transform="translate(0.000000,327.000000) scale(0.100000,-0.100000)"
fill="#000000" stroke="none">
<path d="M597 3204 c-1 -1 -33 -4 -72 -7 -90 -7 -135 -17 -135 -29 0 -5 -4 -7
-8 -4 -16 10 -118 -58 -172 -114 -51 -53 -113 -156 -113 -187 0 -7 -3 -13 -7
-13 -3 0 -7 -8 -9 -17 -8 -41 -10 -2263 -3 -2263 5 0 8 -10 7 -22 -3 -43 55
-165 104 -217 17 -18 31 -37 31 -41 0 -4 9 -10 21 -13 13 -4 18 -10 13 -18 -4
-8 -3 -10 4 -5 7 4 12 2 12 -3 0 -6 7 -11 15 -11 8 0 15 -5 15 -11 0 -5 4 -8
9 -4 5 3 16 -2 24 -10 9 -8 21 -15 27 -15 6 0 21 -6 33 -14 12 -7 32 -13 45
-11 24 2 27 -4 12 -23 -7 -9 -7 -9 2 -2 18 15 81 13 72 -2 -6 -10 -5 -10 7 -2
21 17 145 13 141 -4 -1 -8 2 -11 8 -7 6 3 8 11 5 16 -4 5 1 9 10 9 9 0 14 -4
11 -8 -3 -5 1 -9 9 -9 8 0 12 4 9 9 -3 4 2 8 11 8 10 0 14 -5 9 -12 -6 -10 -4
-10 7 -1 17 17 49 17 49 1 0 -9 3 -9 8 -2 11 16 94 18 103 2 7 -10 9 -10 9 0
0 6 7 12 15 12 8 0 15 -6 15 -12 0 -8 3 -9 8 -3 11 16 44 18 53 3 7 -10 9 -10
9 0 0 6 7 12 16 12 13 0 14 -3 5 -14 -9 -11 -9 -16 1 -22 7 -4 10 -4 6 1 -10
11 10 35 29 35 8 0 12 -4 9 -8 -3 -5 1 -9 9 -9 8 0 12 4 8 9 -3 5 8 8 23 6 18
-2 28 -8 26 -16 -1 -8 2 -11 8 -7 6 3 8 11 5 16 -4 5 1 9 10 9 9 0 14 -4 11
-8 -3 -5 1 -9 9 -9 8 0 12 4 9 9 -3 4 2 8 11 8 10 0 14 -5 9 -12 -6 -11 -4
-11 7 0 17 16 49 16 49 0 0 -9 3 -9 8 -2 11 16 94 18 103 2 7 -10 9 -10 9 0 0
6 7 12 15 12 8 0 15 -6 15 -12 0 -8 3 -9 8 -3 11 16 44 18 53 3 7 -10 9 -10 9
0 0 6 7 12 16 12 13 0 14 -3 5 -14 -9 -11 -9 -16 1 -22 7 -4 10 -4 6 1 -10 11
10 35 29 35 8 0 12 -4 9 -8 -3 -5 1 -9 9 -9 8 0 12 4 8 9 -3 5 8 8 23 6 18 -2
28 -8 26 -16 -1 -8 2 -11 8 -7 6 3 8 11 5 16 -4 5 1 9 10 9 9 0 14 -4 11 -8
-3 -5 1 -9 9 -9 8 0 12 4 9 9 -3 4 2 8 11 8 10 0 14 -5 9 -12 -6 -10 -4 -10 7
0 7 6 28 12 47 12 27 0 32 -3 24 -13 -8 -10 -6 -13 7 -13 11 0 17 6 14 13 -7
17 19 17 36 1 11 -11 13 -11 7 0 -5 7 -1 12 9 12 9 0 13 -5 10 -11 -4 -6 3 -5
14 3 18 11 23 11 31 -2 5 -8 10 -10 10 -4 0 6 12 11 26 11 18 0 22 -2 13 -8
-10 -6 -10 -9 -2 -9 6 0 14 4 17 9 3 5 17 9 31 9 13 0 22 -5 19 -10 -3 -5 3
-4 14 3 17 11 24 10 38 -2 10 -8 15 -9 11 -3 -5 8 7 12 35 12 32 1 39 -2 28
-10 -13 -8 -12 -9 1 -5 9 3 23 0 30 -6 11 -10 11 -9 1 4 -10 14 -6 16 30 17
22 1 47 -3 54 -9 9 -7 18 -8 27 -2 17 13 59 14 51 2 -3 -6 3 -5 14 2 17 11 24
10 38 -2 10 -8 15 -9 11 -3 -5 8 7 12 35 12 32 1 39 -2 28 -10 -13 -8 -12 -9
1 -5 9 3 23 0 30 -6 11 -10 11 -9 1 4 -10 14 -6 16 30 17 22 1 47 -3 54 -9 9
-7 18 -7 32 2 17 10 24 10 38 -2 15 -11 16 -11 9 0 -6 11 -2 13 19 9 14 -3 26
-2 26 2 0 4 9 10 20 13 15 4 20 0 20 -14 0 -10 4 -19 9 -19 5 0 7 8 4 19 -6
22 36 38 49 18 6 -9 8 -8 8 3 0 8 9 21 21 28 17 11 20 11 14 0 -5 -7 2 -3 14
10 12 12 26 20 32 17 5 -4 9 0 9 8 0 8 7 18 16 21 8 3 12 2 9 -3 -3 -5 0 -13
6 -17 8 -5 9 -3 4 6 -5 9 -1 10 16 6 20 -6 21 -5 7 4 -22 13 -24 34 -3 27 8
-4 17 -1 21 5 4 7 3 8 -4 4 -7 -4 -4 7 6 24 14 25 22 30 42 25 17 -4 21 -3 11
4 -9 6 -11 15 -6 27 5 11 7 23 6 27 -1 5 3 6 9 2 5 -3 11 0 12 7 0 7 2 18 2
23 2 18 33 55 39 48 4 -3 7 -1 7 5 0 7 -6 12 -12 12 -8 0 -9 3 -3 8 6 4 11 18
11 32 3 46 4 49 22 53 16 4 16 5 0 6 -21 1 -23 12 -6 29 9 9 9 12 0 12 -7 0
-12 5 -12 11 0 5 4 8 8 5 4 -2 8 4 8 14 0 10 -4 16 -8 14 -4 -3 -8 0 -8 5 0 6
5 11 11 11 6 0 7 6 2 12 -12 21 -12 68 0 68 7 0 6 4 -3 10 -13 9 -13 10 0 10
12 0 12 2 2 9 -17 11 -17 21 0 32 7 5 8 9 3 9 -13 0 -13 109 -1 129 6 9 5 12
-1 8 -6 -4 -9 18 -8 56 1 48 5 61 16 59 10 -1 9 2 -3 11 -18 14 -26 33 -10 23
4 -2 8 4 8 14 0 10 -4 16 -8 14 -4 -3 -8 0 -8 5 0 6 5 11 11 11 6 0 7 5 2 13
-12 20 -12 39 1 34 6 -3 12 3 12 14 0 13 -4 15 -13 8 -9 -8 -11 -5 -10 10 1
12 6 21 12 21 5 0 4 4 -3 9 -17 11 -17 21 0 32 7 5 8 9 2 9 -6 0 -11 7 -11 15
0 8 4 15 9 15 4 0 8 5 8 11 0 5 -4 8 -8 5 -4 -2 -8 6 -8 20 0 13 5 24 11 24 5
0 3 5 -5 10 -13 9 -13 10 0 10 12 0 12 2 2 9 -8 4 -14 12 -14 16 0 4 6 12 14
16 7 5 8 9 3 9 -13 0 -13 109 -1 129 6 9 5 12 -1 8 -14 -9 -11 65 2 75 6 5 6
8 -2 8 -6 0 -10 8 -8 18 1 9 9 16 16 14 9 -1 8 3 -3 11 -18 14 -26 33 -10 23
4 -2 8 4 8 14 0 10 -4 16 -8 14 -4 -3 -8 0 -8 5 0 6 5 11 11 11 6 0 7 5 2 13
-12 20 -12 39 1 34 6 -3 12 3 12 14 0 13 -4 15 -13 8 -9 -8 -11 -5 -10 10 1
12 6 21 12 21 5 0 4 4 -3 9 -8 4 -14 12 -14 16 0 4 6 12 14 16 7 5 9 9 3 9
-14 0 -15 90 -1 90 6 0 4 5 -4 10 -13 9 -13 10 0 10 12 0 12 2 2 9 -8 4 -14
12 -14 16 0 4 6 12 14 16 7 5 8 9 3 9 -13 0 -13 109 -1 129 6 9 5 12 -1 8 -6
-4 -9 18 -8 56 1 48 5 61 16 59 10 -1 9 2 -3 11 -18 14 -26 33 -10 23 4 -2 8
4 8 14 0 10 -4 16 -8 14 -4 -3 -8 0 -8 5 0 6 5 11 11 11 6 0 7 5 2 13 -12 20
-12 39 1 34 6 -3 12 3 12 14 0 13 -4 15 -13 8 -9 -8 -11 -5 -10 10 1 12 6 21
12 21 5 0 4 4 -3 9 -8 4 -14 12 -14 16 0 4 6 12 14 16 7 5 9 9 3 9 -6 0 -10
32 -11 75 0 41 3 75 8 75 4 0 8 5 8 11 0 5 -4 8 -9 5 -8 -5 -26 63 -24 92 0 6
-3 12 -9 12 -5 0 -6 5 -3 10 3 6 1 10 -6 10 -8 0 -8 4 1 15 11 13 10 14 -5 9
-12 -5 -16 -3 -13 6 4 14 -8 34 -49 77 -12 13 -20 23 -16 23 3 0 -17 20 -43
45 -27 25 -54 45 -60 45 -6 0 -17 7 -24 15 -7 8 -16 12 -21 9 -5 -3 -9 -1 -9
4 0 11 -89 40 -150 48 -35 5 -2087 13 -2093 8z"/>
<path d="M3120 2636 c0 -2 7 -7 16 -10 8 -3 12 -2 9 4 -6 10 -25 14 -25 6z"/>
<path d="M3140 2590 c-9 -6 -10 -10 -3 -10 6 0 15 5 18 10 8 12 4 12 -15 0z"/>
<path d="M3126 2193 c-6 -14 -5 -15 5 -6 7 7 10 15 7 18 -3 3 -9 -2 -12 -12z"/>
<path d="M3140 2110 c-9 -6 -10 -10 -3 -10 6 0 15 5 18 10 8 12 4 12 -15 0z"/>
<path d="M3140 1950 c-9 -6 -10 -10 -3 -10 6 0 15 5 18 10 8 12 4 12 -15 0z"/>
<path d="M3126 1553 c-6 -14 -5 -15 5 -6 7 7 10 15 7 18 -3 3 -9 -2 -12 -12z"/>
<path d="M3140 1470 c-9 -6 -10 -10 -3 -10 6 0 15 5 18 10 8 12 4 12 -15 0z"/>
<path d="M3140 1310 c-9 -6 -10 -10 -3 -10 6 0 15 5 18 10 8 12 4 12 -15 0z"/>
<path d="M3126 913 c-6 -14 -5 -15 5 -6 7 7 10 15 7 18 -3 3 -9 -2 -12 -12z"/>
<path d="M3140 830 c-9 -6 -10 -10 -3 -10 6 0 15 5 18 10 8 12 4 12 -15 0z"/>
<path d="M3126 568 c3 -5 10 -6 15 -3 13 9 11 12 -6 12 -8 0 -12 -4 -9 -9z"/>
<path d="M3075 420 c-3 -6 1 -7 9 -4 18 7 21 14 7 14 -6 0 -13 -4 -16 -10z"/>
<path d="M3060 390 c0 -5 5 -10 11 -10 5 0 7 5 4 10 -3 6 -8 10 -11 10 -2 0
-4 -4 -4 -10z"/>
<path d="M3005 329 c-5 -8 -4 -10 3 -5 7 4 12 3 12 -3 0 -5 -6 -12 -12 -14
-10 -4 -10 -6 -1 -6 17 -1 27 19 15 31 -6 6 -12 6 -17 -3z"/>
<path d="M2995 250 c3 -5 8 -10 11 -10 2 0 4 5 4 10 0 6 -5 10 -11 10 -5 0 -7
-4 -4 -10z"/>
<path d="M2859 189 c-7 -4 4 -6 24 -5 21 2 39 5 42 8 8 7 -54 5 -66 -3z"/>
<path d="M2793 161 c0 -11 5 -18 9 -15 4 3 5 11 1 19 -7 21 -12 19 -10 -4z"/>
<path d="M2096 133 c-6 -14 -5 -15 5 -6 7 7 10 15 7 18 -3 3 -9 -2 -12 -12z"/>
<path d="M2210 141 c0 -6 4 -13 10 -16 6 -3 7 1 4 9 -7 18 -14 21 -14 7z"/>
<path d="M2416 133 c-6 -14 -5 -15 5 -6 7 7 10 15 7 18 -3 3 -9 -2 -12 -12z"/>
<path d="M2530 141 c0 -6 4 -13 10 -16 6 -3 7 1 4 9 -7 18 -14 21 -14 7z"/>
<path d="M630 130 c0 -5 7 -7 15 -4 8 4 15 8 15 10 0 2 -7 4 -15 4 -8 0 -15
-4 -15 -10z"/>
<path d="M756 123 c-6 -14 -5 -15 5 -6 7 7 10 15 7 18 -3 3 -9 -2 -12 -12z"/>
<path d="M820 130 c-9 -6 -10 -10 -3 -10 6 0 15 5 18 10 8 12 4 12 -15 0z"/>
<path d="M1236 123 c-6 -14 -5 -15 5 -6 7 7 10 15 7 18 -3 3 -9 -2 -12 -12z"/>
<path d="M1300 130 c-9 -6 -10 -10 -3 -10 6 0 15 5 18 10 8 12 4 12 -15 0z"/>
<path d="M1716 123 c-6 -14 -5 -15 5 -6 7 7 10 15 7 18 -3 3 -9 -2 -12 -12z"/>
<path d="M1990 130 c0 -5 5 -10 10 -10 6 0 10 5 10 10 0 6 -4 10 -10 10 -5 0
-10 -4 -10 -10z"/>
<path d="M2035 130 c-3 -5 -1 -10 4 -10 6 0 11 5 11 10 0 6 -2 10 -4 10 -3 0
-8 -4 -11 -10z"/>
<path d="M2310 130 c0 -5 5 -10 10 -10 6 0 10 5 10 10 0 6 -4 10 -10 10 -5 0
-10 -4 -10 -10z"/>
<path d="M2355 130 c-3 -5 -1 -10 4 -10 6 0 11 5 11 10 0 6 -2 10 -4 10 -3 0
-8 -4 -11 -10z"/>
<path d="M2630 130 c0 -5 5 -10 10 -10 6 0 10 5 10 10 0 6 -4 10 -10 10 -5 0
-10 -4 -10 -10z"/>
</g>
</svg>
